<?xml version="1.0" encoding="UTF-8"?>
<svg id="Layer_1" data-name="Layer 1" xmlns="http://www.w3.org/2000/svg" viewBox="0 0 1920 1080.36">
  <defs>
    <style>
      .cls-1 {
        fill: #fcc50f;
      }

      .cls-2 {
        fill: #f18b6c;
      }

      .cls-3 {
        fill: #feda65;
      }

      .cls-4 {
        fill: #f44d1a;
      }
    </style>
  </defs>
  <polygon class="cls-4" points="792.07 655.89 169.08 912.05 294.89 487.41 792.07 655.89"/>
  <polygon class="cls-2" points="294.89 487.41 896.66 189.02 792.07 655.89 294.89 487.41"/>
  <polygon class="cls-1" points="294.89 487.41 0 189.02 169.08 912.05 294.89 487.41"/>
  <polygon class="cls-2" points="169.08 912.05 0 1080.36 0 189.02 169.08 912.05"/>
  <polygon class="cls-3" points="0 1080.36 469.21 1080.36 169.08 912.05 0 1080.36"/>
  <polygon class="cls-1" points="469.21 1080.36 792.07 655.89 169.08 912.05 469.21 1080.36"/>
  <polygon class="cls-2" points="792.07 655.89 960 1080.36 469.21 1080.36 792.07 655.89"/>
  <polygon class="cls-3" points="294.89 487.41 647.2 .36 0 189.02 294.89 487.41"/>
  <polygon class="cls-4" points="647.2 .36 896.66 189.02 294.89 487.41 647.2 .36"/>
  <polygon class="cls-4" points="647.2 .36 0 .36 0 189.02 647.2 .36"/>
  <polygon class="cls-1" points="896.66 189.02 1111.91 .36 647.2 .36 896.66 189.02"/>
  <polygon class="cls-3" points="896.66 189.02 1180.12 655.89 792.07 655.89 896.66 189.02"/>
  <polygon class="cls-4" points="1111.91 .36 1180.12 655.89 896.66 189.02 1111.91 .36"/>
  <polygon class="cls-4" points="1180.12 655.89 960 1080.36 792.07 655.89 1180.12 655.89"/>
  <polygon class="cls-1" points="1180.12 655.89 1527.23 496.73 1111.91 .36 1180.12 655.89"/>
  <polygon class="cls-4" points="1180.12 655.89 1437.8 810.5 1527.23 496.73 1180.12 655.89"/>
  <polygon class="cls-1" points="1437.8 810.5 1180.12 655.89 960 1080.36 1437.8 810.5"/>
  <polygon class="cls-2" points="1527.23 496.73 1920 627.09 1437.8 810.5 1527.23 496.73"/>
  <polygon class="cls-3" points="1437.8 810.5 1639.4 1080.36 960 1080.36 1437.8 810.5"/>
  <polygon class="cls-1" points="1437.8 810.5 1920 627.09 1639.4 1080.36 1437.8 810.5"/>
  <polygon class="cls-4" points="1920 627.09 1920 1080.36 1639.4 1080.36 1920 627.09"/>
  <polygon class="cls-3" points="1920 627.09 1920 167.8 1527.23 496.73 1920 627.09"/>
  <polygon class="cls-2" points="1527.23 496.73 1601.51 .36 1111.91 .36 1527.23 496.73"/>
  <path class="cls-4" d="m1527.23,496.73S1593.93,1.17,1601.51.36s318.49,0,318.49,0v167.44l-392.77,328.93Z"/>
</svg>