<?xml version="1.0" encoding="UTF-8"?>
<svg id="Layer_1" data-name="Layer 1" xmlns="http://www.w3.org/2000/svg" viewBox="0 0 378.38 280.87">
  <defs>
    <style>
      .cls-1 {
        fill: #fcc50f;
      }

      .cls-2 {
        fill: #f44d1a;
      }
    </style>
  </defs>
  <polygon class="cls-1" points="2.63 43.72 0 43.72 3.7 28.88 6.33 28.88 2.63 43.72"/>
  <polygon class="cls-1" points="8.98 43.67 6.35 43.67 10.05 28.83 12.68 28.83 8.98 43.67"/>
  <polygon class="cls-2" points="102.48 1.86 104.34 0 112.22 13.11 110.36 14.97 102.48 1.86"/>
  <polygon class="cls-2" points="98.02 6.39 99.88 4.53 107.76 17.63 105.9 19.49 98.02 6.39"/>
  <polygon class="cls-2" points="67.05 81.41 68.9 83.27 55.8 91.15 53.94 89.29 67.05 81.41"/>
  <polygon class="cls-2" points="62.52 76.96 64.38 78.82 51.27 86.69 49.41 84.83 62.52 76.96"/>
  <polygon class="cls-1" points="152.62 111.19 152.62 108.56 167.46 112.26 167.46 114.89 152.62 111.19"/>
  <polygon class="cls-1" points="152.67 117.54 152.67 114.91 167.51 118.61 167.51 121.24 152.67 117.54"/>
  <polygon class="cls-2" points="262.37 88.15 259.74 88.15 263.44 73.31 266.07 73.31 262.37 88.15"/>
  <polygon class="cls-2" points="268.72 88.1 266.09 88.1 269.79 73.26 272.42 73.26 268.72 88.1"/>
  <polygon class="cls-1" points="202.01 39.74 200.15 37.88 213.26 30 215.12 31.86 202.01 39.74"/>
  <polygon class="cls-1" points="206.54 44.19 204.68 42.33 217.78 34.46 219.64 36.32 206.54 44.19"/>
  <polygon class="cls-2" points="322.78 14.02 322.78 16.65 307.94 12.95 307.94 10.32 322.78 14.02"/>
  <polygon class="cls-2" points="322.73 7.67 322.73 10.3 307.89 6.6 307.89 3.97 322.73 7.67"/>
  <polygon class="cls-1" points="368.64 99.91 370.5 98.05 378.38 111.16 376.52 113.02 368.64 99.91"/>
  <polygon class="cls-1" points="364.19 104.44 366.05 102.58 373.92 115.69 372.06 117.55 364.19 104.44"/>
  <polygon class="cls-1" points="7.63 198.12 5 198.12 8.7 183.28 11.33 183.28 7.63 198.12"/>
  <polygon class="cls-1" points="13.98 198.07 11.35 198.07 15.05 183.23 17.68 183.23 13.98 198.07"/>
  <polygon class="cls-2" points="107.48 156.26 109.34 154.4 117.21 167.51 115.35 169.37 107.48 156.26"/>
  <polygon class="cls-2" points="103.02 160.78 104.88 158.92 112.76 172.03 110.9 173.89 103.02 160.78"/>
  <polygon class="cls-2" points="69.04 237.74 70.9 239.6 57.79 247.47 55.93 245.61 69.04 237.74"/>
  <polygon class="cls-2" points="64.52 233.28 66.38 235.14 53.27 243.02 51.41 241.16 64.52 233.28"/>
  <polygon class="cls-1" points="150.62 269.52 150.62 266.89 165.45 270.59 165.45 273.22 150.62 269.52"/>
  <polygon class="cls-1" points="150.67 275.87 150.67 273.24 165.5 276.94 165.5 279.57 150.67 275.87"/>
  <polygon class="cls-2" points="260.37 251.48 257.74 251.48 261.44 236.64 264.07 236.64 260.37 251.48"/>
  <polygon class="cls-2" points="266.72 251.43 264.09 251.43 267.79 236.59 270.42 236.59 266.72 251.43"/>
  <polygon class="cls-1" points="207.01 194.14 205.15 192.28 218.25 184.4 220.11 186.26 207.01 194.14"/>
  <polygon class="cls-1" points="211.53 198.59 209.67 196.73 222.78 188.86 224.64 190.71 211.53 198.59"/>
  <polygon class="cls-2" points="327.78 168.42 327.78 171.05 312.94 167.35 312.94 164.72 327.78 168.42"/>
  <polygon class="cls-2" points="327.73 162.07 327.73 164.7 312.89 161 312.89 158.37 327.73 162.07"/>
  <polygon class="cls-1" points="366.64 263.24 368.5 261.38 376.37 274.48 374.51 276.34 366.64 263.24"/>
  <polygon class="cls-1" points="362.18 267.76 364.04 265.9 371.92 279.01 370.06 280.87 362.18 267.76"/>
</svg>